<svg preserveAspectRatio="none" width="100%" height="100%" overflow="visible" style="display: block;" viewBox="0 0 19.3473 19.354" fill="none" xmlns="http://www.w3.org/2000/svg">
<path id="Vector" d="M18.3473 12.708C16.7105 13.3662 14.9164 13.5289 13.1879 13.1758C11.4595 12.8226 9.8729 11.9693 8.62545 10.7219C7.378 9.47441 6.52468 7.88784 6.17156 6.15939C5.81843 4.43093 5.98108 2.6368 6.63928 1.00003C4.70099 1.78076 3.09464 3.21142 2.09561 5.04675C1.09657 6.88208 0.767071 9.00777 1.16359 11.0594C1.56012 13.1111 2.65796 14.9609 4.26893 16.2918C5.8799 17.6227 7.90366 18.3518 9.99328 18.354C11.7902 18.3541 13.546 17.8164 15.0348 16.8102C16.5236 15.804 17.6773 14.3754 18.3473 12.708Z" stroke="var(--stroke-0, #0F172A)" stroke-width="2" stroke-linecap="round" stroke-linejoin="round"/>
</svg>
